<mxfile modified="2025-05-13T05:52:35.675Z" host="Electron" agent="Mozilla/5.0 (Windows NT 10.0; Win64; x64) AppleWebKit/537.36 (KHTML, like Gecko) draw.io/22.0.3 Chrome/114.0.5735.289 Electron/25.8.4 Safari/537.36" etag="IZrc629LczSRDJnhICJc" version="22.0.3" type="device">
  <diagram id="WI9T0HZ2pTsCkuznbFz-" name="Page-1">
    <mxGraphModel dx="977" dy="-996" grid="0" gridSize="10" guides="1" tooltips="1" connect="1" arrows="1" fold="1" page="1" pageScale="1" pageWidth="1169" pageHeight="827" math="0" shadow="0">
      <root>
        <mxCell id="0" />
        <mxCell id="1" parent="0" />
        <mxCell id="2BhMB6-4_VeR33mGNP5D-105" style="edgeStyle=orthogonalEdgeStyle;rounded=0;orthogonalLoop=1;jettySize=auto;html=1;" edge="1" parent="1">
          <mxGeometry relative="1" as="geometry">
            <mxPoint x="855.48" y="3778" as="targetPoint" />
            <mxPoint x="736" y="3866.89" as="sourcePoint" />
          </mxGeometry>
        </mxCell>
        <mxCell id="2BhMB6-4_VeR33mGNP5D-85" value="" style="rounded=0;whiteSpace=wrap;html=1;fillColor=none;strokeWidth=1;dashed=1;strokeColor=#878787;" vertex="1" parent="1">
          <mxGeometry x="390" y="3810" width="380" height="121" as="geometry" />
        </mxCell>
        <mxCell id="1u7TbK9TsXJTor0NxbXx-122" value="" style="rounded=0;whiteSpace=wrap;html=1;fillColor=none;strokeWidth=1;dashed=1;strokeColor=#878787;" parent="1" vertex="1">
          <mxGeometry x="225" y="1964" width="104" height="214" as="geometry" />
        </mxCell>
        <mxCell id="1u7TbK9TsXJTor0NxbXx-94" value="" style="rounded=0;whiteSpace=wrap;html=1;fillColor=none;strokeWidth=1;dashed=1;strokeColor=#878787;" parent="1" vertex="1">
          <mxGeometry x="117" y="1922" width="223" height="273" as="geometry" />
        </mxCell>
        <mxCell id="1u7TbK9TsXJTor0NxbXx-95" value="Azure Databrics" style="image;sketch=0;aspect=fixed;html=1;points=[];align=center;fontSize=12;image=img/lib/mscae/Databricks.svg;" parent="1" vertex="1">
          <mxGeometry x="700.75" y="2131.89" width="50" height="48" as="geometry" />
        </mxCell>
        <mxCell id="1u7TbK9TsXJTor0NxbXx-96" value="Azure Virtual&lt;br&gt;Machine" style="image;aspect=fixed;html=1;points=[];align=center;fontSize=12;image=img/lib/azure2/compute/Virtual_Machine.svg;" parent="1" vertex="1">
          <mxGeometry x="242.5" y="1978" width="69" height="64" as="geometry" />
        </mxCell>
        <mxCell id="1u7TbK9TsXJTor0NxbXx-97" style="edgeStyle=orthogonalEdgeStyle;rounded=0;orthogonalLoop=1;jettySize=auto;html=1;" parent="1" source="1u7TbK9TsXJTor0NxbXx-98" edge="1">
          <mxGeometry relative="1" as="geometry">
            <mxPoint x="937" y="1967.8" as="targetPoint" />
          </mxGeometry>
        </mxCell>
        <mxCell id="1u7TbK9TsXJTor0NxbXx-98" value="Azure Synapse&lt;br&gt;Analytics" style="image;aspect=fixed;html=1;points=[];align=center;fontSize=12;image=img/lib/azure2/databases/Azure_Synapse_Analytics.svg;" parent="1" vertex="1">
          <mxGeometry x="837" y="1938.05" width="51.74" height="59.5" as="geometry" />
        </mxCell>
        <mxCell id="1u7TbK9TsXJTor0NxbXx-99" style="edgeStyle=orthogonalEdgeStyle;rounded=0;orthogonalLoop=1;jettySize=auto;html=1;" parent="1" source="1u7TbK9TsXJTor0NxbXx-100" edge="1">
          <mxGeometry relative="1" as="geometry">
            <mxPoint x="697" y="1962" as="targetPoint" />
          </mxGeometry>
        </mxCell>
        <mxCell id="1u7TbK9TsXJTor0NxbXx-100" value="Azure Data&lt;br&gt;Factory" style="image;sketch=0;aspect=fixed;html=1;points=[];align=center;fontSize=12;image=img/lib/mscae/Data_Factory.svg;" parent="1" vertex="1">
          <mxGeometry x="552" y="1938.06" width="50" height="50" as="geometry" />
        </mxCell>
        <mxCell id="1u7TbK9TsXJTor0NxbXx-101" value="Python" style="shape=image;verticalLabelPosition=bottom;labelBackgroundColor=default;verticalAlign=top;aspect=fixed;imageAspect=0;image=https://logohistory.net/wp-content/uploads/2023/06/Python-Emblem.png;" parent="1" vertex="1">
          <mxGeometry x="232.56" y="2099" width="88.88" height="50" as="geometry" />
        </mxCell>
        <mxCell id="1u7TbK9TsXJTor0NxbXx-102" value="Web Scraper" style="text;html=1;align=center;verticalAlign=middle;resizable=0;points=[];autosize=1;strokeColor=none;fillColor=none;fontStyle=1" parent="1" vertex="1">
          <mxGeometry x="227" y="1933" width="100" height="30" as="geometry" />
        </mxCell>
        <mxCell id="1u7TbK9TsXJTor0NxbXx-103" value="Power BI" style="shape=image;verticalLabelPosition=bottom;labelBackgroundColor=default;verticalAlign=top;aspect=fixed;imageAspect=0;image=https://cdn.freelogovectors.net/wp-content/uploads/2023/11/power-bi-logo-freelogovectors.net_.png;" parent="1" vertex="1">
          <mxGeometry x="927" y="1934.11" width="81" height="60" as="geometry" />
        </mxCell>
        <mxCell id="1u7TbK9TsXJTor0NxbXx-104" value="Raw Data Storage" style="text;html=1;align=center;verticalAlign=middle;resizable=0;points=[];autosize=1;strokeColor=none;fillColor=none;fontStyle=1" parent="1" vertex="1">
          <mxGeometry x="357" y="1872" width="130" height="30" as="geometry" />
        </mxCell>
        <mxCell id="1u7TbK9TsXJTor0NxbXx-105" style="edgeStyle=orthogonalEdgeStyle;rounded=0;orthogonalLoop=1;jettySize=auto;html=1;" parent="1" source="1u7TbK9TsXJTor0NxbXx-106" edge="1">
          <mxGeometry relative="1" as="geometry">
            <mxPoint x="547" y="1962" as="targetPoint" />
          </mxGeometry>
        </mxCell>
        <mxCell id="1u7TbK9TsXJTor0NxbXx-106" value="Data Lake Gen2" style="image;sketch=0;aspect=fixed;html=1;points=[];align=center;fontSize=12;image=img/lib/mscae/Data_Lake.svg;" parent="1" vertex="1">
          <mxGeometry x="400" y="1934.1100000000001" width="44" height="57.89" as="geometry" />
        </mxCell>
        <mxCell id="1u7TbK9TsXJTor0NxbXx-107" value="Data Ingestion" style="text;html=1;align=center;verticalAlign=middle;resizable=0;points=[];autosize=1;strokeColor=none;fillColor=none;fontStyle=1" parent="1" vertex="1">
          <mxGeometry x="527" y="1872" width="110" height="30" as="geometry" />
        </mxCell>
        <mxCell id="1u7TbK9TsXJTor0NxbXx-108" style="edgeStyle=orthogonalEdgeStyle;rounded=0;orthogonalLoop=1;jettySize=auto;html=1;startArrow=classic;startFill=1;endArrow=none;endFill=0;" parent="1" edge="1">
          <mxGeometry relative="1" as="geometry">
            <mxPoint x="716.9999999999998" y="2042" as="targetPoint" />
            <mxPoint x="717.0000000000002" y="2096" as="sourcePoint" />
          </mxGeometry>
        </mxCell>
        <mxCell id="1u7TbK9TsXJTor0NxbXx-109" value="Data Transformation" style="text;html=1;align=center;verticalAlign=middle;resizable=0;points=[];autosize=1;strokeColor=none;fillColor=none;fontStyle=1" parent="1" vertex="1">
          <mxGeometry x="657" y="2096" width="140" height="30" as="geometry" />
        </mxCell>
        <mxCell id="1u7TbK9TsXJTor0NxbXx-110" value="Analytics &amp;amp; Reporting" style="text;html=1;align=center;verticalAlign=middle;resizable=0;points=[];autosize=1;strokeColor=none;fillColor=none;fontStyle=1" parent="1" vertex="1">
          <mxGeometry x="836" y="1874" width="143" height="26" as="geometry" />
        </mxCell>
        <mxCell id="1u7TbK9TsXJTor0NxbXx-112" value="Files" style="image;aspect=fixed;html=1;points=[];align=center;fontSize=12;image=img/lib/azure2/general/Folder_Blank.svg;" parent="1" vertex="1">
          <mxGeometry x="139" y="1975.0000000000005" width="69" height="56.00000000000001" as="geometry" />
        </mxCell>
        <mxCell id="1u7TbK9TsXJTor0NxbXx-113" value="Database" style="text;html=1;align=center;verticalAlign=middle;resizable=0;points=[];autosize=1;strokeColor=none;fillColor=none;fontStyle=1" parent="1" vertex="1">
          <mxGeometry x="687" y="1871.9999999999998" width="80" height="30" as="geometry" />
        </mxCell>
        <mxCell id="1u7TbK9TsXJTor0NxbXx-114" style="edgeStyle=orthogonalEdgeStyle;rounded=0;orthogonalLoop=1;jettySize=auto;html=1;" parent="1" source="1u7TbK9TsXJTor0NxbXx-115" edge="1">
          <mxGeometry relative="1" as="geometry">
            <mxPoint x="827" y="1967" as="targetPoint" />
          </mxGeometry>
        </mxCell>
        <mxCell id="1u7TbK9TsXJTor0NxbXx-115" value="Azure SQL&lt;br&gt;Database" style="verticalLabelPosition=bottom;html=1;verticalAlign=top;align=center;strokeColor=none;fillColor=#00BEF2;shape=mxgraph.azure.sql_database_sql_azure;" parent="1" vertex="1">
          <mxGeometry x="703.25" y="1942" width="47.5" height="50" as="geometry" />
        </mxCell>
        <mxCell id="1u7TbK9TsXJTor0NxbXx-116" style="edgeStyle=orthogonalEdgeStyle;rounded=0;orthogonalLoop=1;jettySize=auto;html=1;endArrow=classic;endFill=1;startArrow=none;startFill=0;" parent="1" edge="1">
          <mxGeometry relative="1" as="geometry">
            <mxPoint x="736.9999999999998" y="2042" as="targetPoint" />
            <mxPoint x="737.0000000000002" y="2096" as="sourcePoint" />
          </mxGeometry>
        </mxCell>
        <mxCell id="1u7TbK9TsXJTor0NxbXx-117" value="&lt;span style=&quot;font-weight: normal;&quot;&gt;Raw&lt;/span&gt;" style="text;html=1;align=center;verticalAlign=middle;resizable=0;points=[];autosize=1;strokeColor=none;fillColor=none;fontStyle=1" parent="1" vertex="1">
          <mxGeometry x="662" y="2052" width="50" height="30" as="geometry" />
        </mxCell>
        <mxCell id="1u7TbK9TsXJTor0NxbXx-118" value="&lt;span style=&quot;font-weight: normal;&quot;&gt;Transformed&lt;/span&gt;" style="text;html=1;align=center;verticalAlign=middle;resizable=0;points=[];autosize=1;strokeColor=none;fillColor=none;fontStyle=1" parent="1" vertex="1">
          <mxGeometry x="742" y="2052" width="90" height="30" as="geometry" />
        </mxCell>
        <mxCell id="1u7TbK9TsXJTor0NxbXx-119" style="edgeStyle=orthogonalEdgeStyle;rounded=0;orthogonalLoop=1;jettySize=auto;html=1;" parent="1" edge="1">
          <mxGeometry relative="1" as="geometry">
            <mxPoint x="394" y="1964" as="targetPoint" />
            <mxPoint x="340" y="1963.82" as="sourcePoint" />
          </mxGeometry>
        </mxCell>
        <mxCell id="1u7TbK9TsXJTor0NxbXx-120" value="Data Sources" style="text;html=1;align=center;verticalAlign=middle;resizable=0;points=[];autosize=1;strokeColor=none;fillColor=none;fontStyle=1" parent="1" vertex="1">
          <mxGeometry x="180" y="1874" width="95" height="26" as="geometry" />
        </mxCell>
        <mxCell id="1u7TbK9TsXJTor0NxbXx-121" value="Geo Data" style="text;html=1;align=center;verticalAlign=middle;resizable=0;points=[];autosize=1;strokeColor=none;fillColor=none;fontStyle=1" parent="1" vertex="1">
          <mxGeometry x="137" y="1935" width="71" height="26" as="geometry" />
        </mxCell>
        <mxCell id="2BhMB6-4_VeR33mGNP5D-29" value="" style="rounded=0;whiteSpace=wrap;html=1;fillColor=none;strokeWidth=1;dashed=1;strokeColor=#878787;" vertex="1" parent="1">
          <mxGeometry x="158" y="2785" width="104" height="214" as="geometry" />
        </mxCell>
        <mxCell id="2BhMB6-4_VeR33mGNP5D-30" value="" style="rounded=0;whiteSpace=wrap;html=1;fillColor=none;strokeWidth=1;dashed=1;strokeColor=#878787;" vertex="1" parent="1">
          <mxGeometry x="50" y="2743" width="223" height="273" as="geometry" />
        </mxCell>
        <mxCell id="2BhMB6-4_VeR33mGNP5D-31" value="Azure Databrics" style="image;sketch=0;aspect=fixed;html=1;points=[];align=center;fontSize=12;image=img/lib/mscae/Databricks.svg;" vertex="1" parent="1">
          <mxGeometry x="637" y="2760.06" width="50" height="48" as="geometry" />
        </mxCell>
        <mxCell id="2BhMB6-4_VeR33mGNP5D-32" value="Azure Virtual&lt;br&gt;Machine" style="image;aspect=fixed;html=1;points=[];align=center;fontSize=12;image=img/lib/azure2/compute/Virtual_Machine.svg;" vertex="1" parent="1">
          <mxGeometry x="175.5" y="2799" width="69" height="64" as="geometry" />
        </mxCell>
        <mxCell id="2BhMB6-4_VeR33mGNP5D-33" style="edgeStyle=orthogonalEdgeStyle;rounded=0;orthogonalLoop=1;jettySize=auto;html=1;entryX=0.123;entryY=0.562;entryDx=0;entryDy=0;entryPerimeter=0;" edge="1" source="2BhMB6-4_VeR33mGNP5D-34" parent="1" target="2BhMB6-4_VeR33mGNP5D-39">
          <mxGeometry relative="1" as="geometry">
            <mxPoint x="1010" y="2788.8" as="targetPoint" />
          </mxGeometry>
        </mxCell>
        <mxCell id="2BhMB6-4_VeR33mGNP5D-34" value="Azure Synapse&lt;br&gt;Analytics" style="image;aspect=fixed;html=1;points=[];align=center;fontSize=12;image=img/lib/azure2/databases/Azure_Synapse_Analytics.svg;" vertex="1" parent="1">
          <mxGeometry x="910" y="2759.05" width="51.74" height="59.5" as="geometry" />
        </mxCell>
        <mxCell id="2BhMB6-4_VeR33mGNP5D-36" value="Azure Data&lt;br&gt;Factory" style="image;sketch=0;aspect=fixed;html=1;points=[];align=center;fontSize=12;image=img/lib/mscae/Data_Factory.svg;" vertex="1" parent="1">
          <mxGeometry x="485" y="2759.06" width="50" height="50" as="geometry" />
        </mxCell>
        <mxCell id="2BhMB6-4_VeR33mGNP5D-37" value="Python" style="shape=image;verticalLabelPosition=bottom;labelBackgroundColor=default;verticalAlign=top;aspect=fixed;imageAspect=0;image=https://logohistory.net/wp-content/uploads/2023/06/Python-Emblem.png;" vertex="1" parent="1">
          <mxGeometry x="165.56" y="2920" width="88.88" height="50" as="geometry" />
        </mxCell>
        <mxCell id="2BhMB6-4_VeR33mGNP5D-38" value="Web Scraper" style="text;html=1;align=center;verticalAlign=middle;resizable=0;points=[];autosize=1;strokeColor=none;fillColor=none;fontStyle=1" vertex="1" parent="1">
          <mxGeometry x="160" y="2754" width="100" height="30" as="geometry" />
        </mxCell>
        <mxCell id="2BhMB6-4_VeR33mGNP5D-39" value="Power BI" style="shape=image;verticalLabelPosition=bottom;labelBackgroundColor=default;verticalAlign=top;aspect=fixed;imageAspect=0;image=https://cdn.freelogovectors.net/wp-content/uploads/2023/11/power-bi-logo-freelogovectors.net_.png;" vertex="1" parent="1">
          <mxGeometry x="1030" y="2755.1099999999997" width="81" height="60" as="geometry" />
        </mxCell>
        <mxCell id="2BhMB6-4_VeR33mGNP5D-40" value="Raw Data Storage&lt;br&gt;(Bronze Layer)" style="text;html=1;align=center;verticalAlign=middle;resizable=0;points=[];autosize=1;strokeColor=none;fillColor=none;fontStyle=1" vertex="1" parent="1">
          <mxGeometry x="290" y="2688" width="130" height="40" as="geometry" />
        </mxCell>
        <mxCell id="2BhMB6-4_VeR33mGNP5D-42" value="Data Lake Gen2" style="image;sketch=0;aspect=fixed;html=1;points=[];align=center;fontSize=12;image=img/lib/mscae/Data_Lake.svg;" vertex="1" parent="1">
          <mxGeometry x="333" y="2755.11" width="44" height="57.89" as="geometry" />
        </mxCell>
        <mxCell id="2BhMB6-4_VeR33mGNP5D-43" value="Data Ingestion&lt;br&gt;&amp;amp; Orchestration" style="text;html=1;align=center;verticalAlign=middle;resizable=0;points=[];autosize=1;strokeColor=none;fillColor=none;fontStyle=1" vertex="1" parent="1">
          <mxGeometry x="460" y="2688" width="110" height="40" as="geometry" />
        </mxCell>
        <mxCell id="2BhMB6-4_VeR33mGNP5D-45" value="Data Transformation&lt;br&gt;(ETL)" style="text;html=1;align=center;verticalAlign=middle;resizable=0;points=[];autosize=1;strokeColor=none;fillColor=none;fontStyle=1" vertex="1" parent="1">
          <mxGeometry x="592" y="2690" width="140" height="40" as="geometry" />
        </mxCell>
        <mxCell id="2BhMB6-4_VeR33mGNP5D-46" value="Aggregation &amp;amp; &lt;br&gt;Analysis" style="text;html=1;align=center;verticalAlign=middle;resizable=0;points=[];autosize=1;strokeColor=none;fillColor=none;fontStyle=1" vertex="1" parent="1">
          <mxGeometry x="890" y="2688" width="110" height="40" as="geometry" />
        </mxCell>
        <mxCell id="2BhMB6-4_VeR33mGNP5D-47" value="Files" style="image;aspect=fixed;html=1;points=[];align=center;fontSize=12;image=img/lib/azure2/general/Folder_Blank.svg;" vertex="1" parent="1">
          <mxGeometry x="72" y="2796.0000000000005" width="69" height="56.00000000000001" as="geometry" />
        </mxCell>
        <mxCell id="2BhMB6-4_VeR33mGNP5D-55" value="Data Sources" style="text;html=1;align=center;verticalAlign=middle;resizable=0;points=[];autosize=1;strokeColor=none;fillColor=none;fontStyle=1" vertex="1" parent="1">
          <mxGeometry x="113" y="2695" width="95" height="26" as="geometry" />
        </mxCell>
        <mxCell id="2BhMB6-4_VeR33mGNP5D-56" value="Geo Data" style="text;html=1;align=center;verticalAlign=middle;resizable=0;points=[];autosize=1;strokeColor=none;fillColor=none;fontStyle=1" vertex="1" parent="1">
          <mxGeometry x="70" y="2756" width="71" height="26" as="geometry" />
        </mxCell>
        <mxCell id="2BhMB6-4_VeR33mGNP5D-58" value="&lt;font style=&quot;font-size: 25px;&quot;&gt;App Model (with SQL Database)&lt;/font&gt;" style="text;html=1;align=center;verticalAlign=middle;resizable=0;points=[];autosize=1;strokeColor=none;fillColor=none;fontStyle=1" vertex="1" parent="1">
          <mxGeometry x="385" y="1738" width="395" height="42" as="geometry" />
        </mxCell>
        <mxCell id="2BhMB6-4_VeR33mGNP5D-59" value="&lt;font style=&quot;font-size: 25px;&quot;&gt;App Model&amp;nbsp;&lt;/font&gt;" style="text;html=1;align=center;verticalAlign=middle;resizable=0;points=[];autosize=1;strokeColor=none;fillColor=none;fontStyle=1" vertex="1" parent="1">
          <mxGeometry x="506" y="2556" width="153" height="42" as="geometry" />
        </mxCell>
        <mxCell id="2BhMB6-4_VeR33mGNP5D-61" value="" style="image;sketch=0;aspect=fixed;html=1;points=[];align=center;fontSize=12;image=img/lib/mscae/Azure_Database_for_PostgreSQL_servers.svg;" vertex="1" parent="1">
          <mxGeometry x="637" y="1885" width="43.32" height="57" as="geometry" />
        </mxCell>
        <mxCell id="2BhMB6-4_VeR33mGNP5D-62" value="Data Lake Gen2" style="image;sketch=0;aspect=fixed;html=1;points=[];align=center;fontSize=12;image=img/lib/mscae/Data_Lake.svg;" vertex="1" parent="1">
          <mxGeometry x="777.74" y="2756" width="44" height="57.89" as="geometry" />
        </mxCell>
        <mxCell id="2BhMB6-4_VeR33mGNP5D-63" value="Raw Data Storage&lt;br&gt;(Gold Layer)" style="text;html=1;align=center;verticalAlign=middle;resizable=0;points=[];autosize=1;strokeColor=none;fillColor=none;fontStyle=1" vertex="1" parent="1">
          <mxGeometry x="740" y="2688" width="130" height="40" as="geometry" />
        </mxCell>
        <mxCell id="2BhMB6-4_VeR33mGNP5D-64" value="Reporting &amp;amp; &lt;br&gt;Visualization" style="text;html=1;align=center;verticalAlign=middle;resizable=0;points=[];autosize=1;strokeColor=none;fillColor=none;fontStyle=1" vertex="1" parent="1">
          <mxGeometry x="1030" y="2688" width="100" height="40" as="geometry" />
        </mxCell>
        <mxCell id="2BhMB6-4_VeR33mGNP5D-72" value="" style="rounded=0;whiteSpace=wrap;html=1;fillColor=none;strokeWidth=1;dashed=1;strokeColor=#878787;" vertex="1" parent="1">
          <mxGeometry x="228" y="3700" width="104" height="214" as="geometry" />
        </mxCell>
        <mxCell id="2BhMB6-4_VeR33mGNP5D-73" value="" style="rounded=0;whiteSpace=wrap;html=1;fillColor=none;strokeWidth=1;dashed=1;strokeColor=#878787;" vertex="1" parent="1">
          <mxGeometry x="120" y="3658" width="223" height="273" as="geometry" />
        </mxCell>
        <mxCell id="2BhMB6-4_VeR33mGNP5D-74" value="Azure Virtual&lt;br&gt;Machine" style="image;aspect=fixed;html=1;points=[];align=center;fontSize=12;image=img/lib/azure2/compute/Virtual_Machine.svg;" vertex="1" parent="1">
          <mxGeometry x="245.5" y="3714" width="69" height="64" as="geometry" />
        </mxCell>
        <mxCell id="2BhMB6-4_VeR33mGNP5D-75" value="Python" style="shape=image;verticalLabelPosition=bottom;labelBackgroundColor=default;verticalAlign=top;aspect=fixed;imageAspect=0;image=https://logohistory.net/wp-content/uploads/2023/06/Python-Emblem.png;" vertex="1" parent="1">
          <mxGeometry x="235.56" y="3835" width="88.88" height="50" as="geometry" />
        </mxCell>
        <mxCell id="2BhMB6-4_VeR33mGNP5D-76" value="Web Scraper" style="text;html=1;align=center;verticalAlign=middle;resizable=0;points=[];autosize=1;strokeColor=none;fillColor=none;fontStyle=1" vertex="1" parent="1">
          <mxGeometry x="230" y="3669" width="100" height="30" as="geometry" />
        </mxCell>
        <mxCell id="2BhMB6-4_VeR33mGNP5D-77" value="Files" style="image;aspect=fixed;html=1;points=[];align=center;fontSize=12;image=img/lib/azure2/general/Folder_Blank.svg;" vertex="1" parent="1">
          <mxGeometry x="142" y="3711.0000000000005" width="69" height="56.00000000000001" as="geometry" />
        </mxCell>
        <mxCell id="2BhMB6-4_VeR33mGNP5D-78" value="Data Sources" style="text;html=1;align=center;verticalAlign=middle;resizable=0;points=[];autosize=1;strokeColor=none;fillColor=none;fontStyle=1" vertex="1" parent="1">
          <mxGeometry x="183" y="3610" width="95" height="26" as="geometry" />
        </mxCell>
        <mxCell id="2BhMB6-4_VeR33mGNP5D-79" value="Geo Data" style="text;html=1;align=center;verticalAlign=middle;resizable=0;points=[];autosize=1;strokeColor=none;fillColor=none;fontStyle=1" vertex="1" parent="1">
          <mxGeometry x="140" y="3671" width="71" height="26" as="geometry" />
        </mxCell>
        <mxCell id="2BhMB6-4_VeR33mGNP5D-80" value="Bronze Layer" style="image;sketch=0;aspect=fixed;html=1;points=[];align=center;fontSize=12;image=img/lib/mscae/Data_Lake.svg;" vertex="1" parent="1">
          <mxGeometry x="430" y="3830" width="47.21" height="62.11" as="geometry" />
        </mxCell>
        <mxCell id="2BhMB6-4_VeR33mGNP5D-83" value="Silver Layer" style="image;sketch=0;aspect=fixed;html=1;points=[];align=center;fontSize=12;image=img/lib/mscae/Data_Lake.svg;" vertex="1" parent="1">
          <mxGeometry x="560" y="3830" width="47.21" height="62.11" as="geometry" />
        </mxCell>
        <mxCell id="2BhMB6-4_VeR33mGNP5D-84" value="Gold Layer" style="image;sketch=0;aspect=fixed;html=1;points=[];align=center;fontSize=12;image=img/lib/mscae/Data_Lake.svg;" vertex="1" parent="1">
          <mxGeometry x="680" y="3830" width="47.21" height="62.11" as="geometry" />
        </mxCell>
        <mxCell id="2BhMB6-4_VeR33mGNP5D-86" value="Data Storage (Data Lake Gen2)" style="text;html=1;align=center;verticalAlign=middle;resizable=0;points=[];autosize=1;fontStyle=1;fillColor=default;" vertex="1" parent="1">
          <mxGeometry x="490" y="3918" width="200" height="30" as="geometry" />
        </mxCell>
        <mxCell id="2BhMB6-4_VeR33mGNP5D-87" value="Azure &lt;br&gt;Databrics" style="image;sketch=0;aspect=fixed;html=1;points=[];align=center;fontSize=12;image=img/lib/mscae/Databricks.svg;" vertex="1" parent="1">
          <mxGeometry x="675" y="3673" width="50" height="48" as="geometry" />
        </mxCell>
        <mxCell id="2BhMB6-4_VeR33mGNP5D-96" style="edgeStyle=orthogonalEdgeStyle;rounded=0;orthogonalLoop=1;jettySize=auto;html=1;" edge="1" parent="1">
          <mxGeometry relative="1" as="geometry">
            <mxPoint x="490" y="3701" as="sourcePoint" />
            <mxPoint x="575.5013953488374" y="3827" as="targetPoint" />
          </mxGeometry>
        </mxCell>
        <mxCell id="2BhMB6-4_VeR33mGNP5D-88" value="Azure Data&lt;br&gt;Factory" style="image;sketch=0;aspect=fixed;html=1;points=[];align=center;fontSize=12;image=img/lib/mscae/Data_Factory.svg;" vertex="1" parent="1">
          <mxGeometry x="435" y="3671" width="50" height="50" as="geometry" />
        </mxCell>
        <mxCell id="2BhMB6-4_VeR33mGNP5D-89" value="Data Ingestion&lt;br&gt;&amp;amp; Orchestration" style="text;html=1;align=center;verticalAlign=middle;resizable=0;points=[];autosize=1;strokeColor=none;fillColor=none;fontStyle=1" vertex="1" parent="1">
          <mxGeometry x="410" y="3610" width="110" height="40" as="geometry" />
        </mxCell>
        <mxCell id="2BhMB6-4_VeR33mGNP5D-90" value="Data Tranformation&lt;br&gt;(Geo Processing)" style="text;html=1;align=center;verticalAlign=middle;resizable=0;points=[];autosize=1;strokeColor=none;fillColor=none;fontStyle=1" vertex="1" parent="1">
          <mxGeometry x="635" y="3610" width="130" height="40" as="geometry" />
        </mxCell>
        <mxCell id="2BhMB6-4_VeR33mGNP5D-93" value="" style="endArrow=classic;html=1;rounded=0;" edge="1" parent="1">
          <mxGeometry width="50" height="50" relative="1" as="geometry">
            <mxPoint x="343" y="3870.27" as="sourcePoint" />
            <mxPoint x="423" y="3870.27" as="targetPoint" />
          </mxGeometry>
        </mxCell>
        <mxCell id="2BhMB6-4_VeR33mGNP5D-94" value="" style="endArrow=classic;html=1;rounded=0;" edge="1" parent="1">
          <mxGeometry width="50" height="50" relative="1" as="geometry">
            <mxPoint x="453.37" y="3825" as="sourcePoint" />
            <mxPoint x="453.37" y="3760" as="targetPoint" />
          </mxGeometry>
        </mxCell>
        <mxCell id="2BhMB6-4_VeR33mGNP5D-98" style="edgeStyle=orthogonalEdgeStyle;rounded=0;orthogonalLoop=1;jettySize=auto;html=1;endArrow=none;endFill=0;startArrow=classic;startFill=1;" edge="1" parent="1">
          <mxGeometry relative="1" as="geometry">
            <mxPoint x="672" y="3700" as="sourcePoint" />
            <mxPoint x="592.5013953488374" y="3827" as="targetPoint" />
          </mxGeometry>
        </mxCell>
        <mxCell id="2BhMB6-4_VeR33mGNP5D-99" value="" style="endArrow=none;html=1;rounded=0;endFill=0;startArrow=classic;startFill=1;" edge="1" parent="1">
          <mxGeometry width="50" height="50" relative="1" as="geometry">
            <mxPoint x="703.37" y="3827" as="sourcePoint" />
            <mxPoint x="703.37" y="3762" as="targetPoint" />
          </mxGeometry>
        </mxCell>
        <mxCell id="2BhMB6-4_VeR33mGNP5D-100" style="edgeStyle=orthogonalEdgeStyle;rounded=0;orthogonalLoop=1;jettySize=auto;html=1;entryX=0.123;entryY=0.562;entryDx=0;entryDy=0;entryPerimeter=0;" edge="1" source="2BhMB6-4_VeR33mGNP5D-101" target="2BhMB6-4_VeR33mGNP5D-102" parent="1">
          <mxGeometry relative="1" as="geometry">
            <mxPoint x="930" y="3710.8" as="targetPoint" />
          </mxGeometry>
        </mxCell>
        <mxCell id="2BhMB6-4_VeR33mGNP5D-101" value="Azure Synapse&lt;br&gt;Analytics" style="image;aspect=fixed;html=1;points=[];align=center;fontSize=12;image=img/lib/azure2/databases/Azure_Synapse_Analytics.svg;" vertex="1" parent="1">
          <mxGeometry x="831.13" y="3671" width="51.74" height="59.5" as="geometry" />
        </mxCell>
        <mxCell id="2BhMB6-4_VeR33mGNP5D-102" value="Power BI" style="shape=image;verticalLabelPosition=bottom;labelBackgroundColor=default;verticalAlign=top;aspect=fixed;imageAspect=0;image=https://cdn.freelogovectors.net/wp-content/uploads/2023/11/power-bi-logo-freelogovectors.net_.png;" vertex="1" parent="1">
          <mxGeometry x="950.74" y="3666.9999999999995" width="81" height="60" as="geometry" />
        </mxCell>
        <mxCell id="2BhMB6-4_VeR33mGNP5D-103" value="Aggregation &amp;amp; &lt;br&gt;Analysis" style="text;html=1;align=center;verticalAlign=middle;resizable=0;points=[];autosize=1;strokeColor=none;fillColor=none;fontStyle=1" vertex="1" parent="1">
          <mxGeometry x="810" y="3610" width="110" height="40" as="geometry" />
        </mxCell>
        <mxCell id="2BhMB6-4_VeR33mGNP5D-104" value="Reporting &amp;amp; &lt;br&gt;Visualization" style="text;html=1;align=center;verticalAlign=middle;resizable=0;points=[];autosize=1;strokeColor=none;fillColor=none;fontStyle=1" vertex="1" parent="1">
          <mxGeometry x="950" y="3610" width="100" height="40" as="geometry" />
        </mxCell>
        <mxCell id="2BhMB6-4_VeR33mGNP5D-106" value="&lt;font style=&quot;font-size: 25px;&quot;&gt;App Model&amp;nbsp;&lt;/font&gt;" style="text;html=1;align=center;verticalAlign=middle;resizable=0;points=[];autosize=1;strokeColor=none;fillColor=none;fontStyle=1" vertex="1" parent="1">
          <mxGeometry x="493" y="3491" width="153" height="42" as="geometry" />
        </mxCell>
      </root>
    </mxGraphModel>
  </diagram>
</mxfile>
